<svg width="40" height="40" fill="none" xmlns="http://www.w3.org/2000/svg"><g clip-path="url(#clip0)" stroke="#fff" stroke-width=".3"><path d="M39.342.664h0a1.726 1.726 0 010 2.442h0l-36.23 36.23h0a1.72 1.72 0 01-1.222.507 1.72 1.72 0 01-1.221-.507h0a1.726 1.726 0 010-2.442h0L36.899.664h0a1.726 1.726 0 012.443 0z" fill="url(#paint0_linear)"/><path d="M.15 8.938C.15 4.104 4.083.17 8.918.17c4.834 0 8.767 3.933 8.767 8.768 0 4.833-3.933 8.767-8.767 8.767-4.835 0-8.768-3.933-8.768-8.767zm3.455 0a5.319 5.319 0 005.313 5.312 5.319 5.319 0 005.312-5.313 5.319 5.319 0 00-5.313-5.312 5.319 5.319 0 00-5.312 5.313z" fill="url(#paint1_linear)"/><path d="M22.315 31.073c0-4.834 3.933-8.767 8.767-8.767 4.835 0 8.768 3.933 8.768 8.767 0 4.835-3.933 8.768-8.768 8.768-4.834 0-8.767-3.934-8.767-8.768zm3.455 0a5.319 5.319 0 005.313 5.313 5.319 5.319 0 005.312-5.313 5.319 5.319 0 00-5.313-5.313 5.319 5.319 0 00-5.312 5.313z" fill="url(#paint2_linear)"/></g><defs><linearGradient id="paint0_linear" x1=".013" y1=".007" x2="32.434" y2="45.396" gradientUnits="userSpaceOnUse"><stop stop-color="#C5C5C5"/><stop offset="1" stop-color="#9A9A9A"/></linearGradient><linearGradient id="paint1_linear" x1="0" y1=".02" x2="14.461" y2="20.265" gradientUnits="userSpaceOnUse"><stop stop-color="#C5C5C5"/><stop offset="1" stop-color="#9A9A9A"/></linearGradient><linearGradient id="paint2_linear" x1="22.165" y1="22.156" x2="36.626" y2="42.401" gradientUnits="userSpaceOnUse"><stop stop-color="#C5C5C5"/><stop offset="1" stop-color="#9A9A9A"/></linearGradient><clipPath id="clip0"><path fill="#fff" d="M0 0h40v40H0z"/></clipPath></defs></svg>