<svg width="40" height="40" fill="none" xmlns="http://www.w3.org/2000/svg"><g clip-path="url(#clip0)"><path d="M12.11 16.432a1.503 1.503 0 00-2.11-.1 1.503 1.503 0 00-.1 2.11l7.587 8.241c.302.302.654.503 1.056.503h.05c.402 0 .804-.15 1.055-.452L38.844 7.588c.603-.603.603-1.558 0-2.11-.603-.604-1.558-.604-2.11 0l-18.09 18.04-6.533-7.086z" fill="url(#paint0_linear)"/><path d="M38.492 18.492A1.48 1.48 0 0036.986 20c0 9.347-7.638 16.985-16.985 16.985S3.015 29.347 3.015 20 10.653 3.015 20 3.015a1.48 1.48 0 001.508-1.507A1.48 1.48 0 0020 0C8.995 0 0 8.995 0 20s8.995 20 20 20 20-8.995 20-20a1.48 1.48 0 00-1.508-1.508z" fill="url(#paint1_linear)"/></g><defs><linearGradient id="paint0_linear" x1="9.514" y1="5.025" x2="25.259" y2="34.647" gradientUnits="userSpaceOnUse"><stop stop-color="#C5C5C5"/><stop offset="1" stop-color="#9A9A9A"/></linearGradient><linearGradient id="paint1_linear" x1="0" y1="0" x2="32.433" y2="45.405" gradientUnits="userSpaceOnUse"><stop stop-color="#C5C5C5"/><stop offset="1" stop-color="#9A9A9A"/></linearGradient><clipPath id="clip0"><path fill="#fff" d="M0 0h40v40H0z"/></clipPath></defs></svg>