<svg width="45" height="40" fill="none" xmlns="http://www.w3.org/2000/svg"><path d="M39.42 27.79a1.317 1.317 0 00-1.778.556 16.774 16.774 0 01-14.898 9.02c-9.256 0-16.788-7.522-16.806-16.774l1.057 1.057a1.313 1.313 0 001.862 0 1.317 1.317 0 000-1.863L5.611 16.54a1.313 1.313 0 00-2.009.03L.386 19.786a1.317 1.317 0 101.862 1.863l1.055-1.055a19.313 19.313 0 005.694 13.712A19.314 19.314 0 0022.744 40a19.4 19.4 0 0017.232-10.432 1.317 1.317 0 00-.556-1.778z" fill="#333"/><path d="M39.42 27.79a1.317 1.317 0 00-1.778.556 16.774 16.774 0 01-14.898 9.02c-9.256 0-16.788-7.522-16.806-16.774l1.057 1.057a1.313 1.313 0 001.862 0 1.317 1.317 0 000-1.863L5.611 16.54a1.313 1.313 0 00-2.009.03L.386 19.786a1.317 1.317 0 101.862 1.863l1.055-1.055a19.313 19.313 0 005.694 13.712A19.314 19.314 0 0022.744 40a19.4 19.4 0 0017.232-10.432 1.317 1.317 0 00-.556-1.778z" fill="url(#paint0_linear)"/><path d="M44.573 18.35a1.317 1.317 0 00-1.863 0l-1.055 1.056a19.313 19.313 0 00-5.694-13.712A19.313 19.313 0 0022.215 0 19.4 19.4 0 004.983 10.432a1.317 1.317 0 102.333 1.222 16.774 16.774 0 0114.899-9.02c9.256 0 16.788 7.522 16.806 16.774l-1.057-1.057a1.317 1.317 0 10-1.863 1.862l3.246 3.246a1.313 1.313 0 002.01-.029l3.216-3.216a1.317 1.317 0 000-1.863z" fill="#333"/><path d="M44.573 18.35a1.317 1.317 0 00-1.863 0l-1.055 1.056a19.313 19.313 0 00-5.694-13.712A19.313 19.313 0 0022.215 0 19.4 19.4 0 004.983 10.432a1.317 1.317 0 102.333 1.222 16.774 16.774 0 0114.899-9.02c9.256 0 16.788 7.522 16.806 16.774l-1.057-1.057a1.317 1.317 0 10-1.863 1.862l3.246 3.246a1.313 1.313 0 002.01-.029l3.216-3.216a1.317 1.317 0 000-1.863z" fill="url(#paint1_linear)"/><path d="M24.28 18.487c-1.192-.42-2.51-.93-3.248-1.51-.233-.181-.333-.598-.25-1.037.04-.219.233-.95.982-1.175 1.228-.37 2.07.12 2.375.348a1.317 1.317 0 001.578-2.11 5.254 5.254 0 00-1.962-.88v-.536a1.317 1.317 0 00-2.634 0v.622l-.117.033c-1.443.435-2.52 1.665-2.811 3.21-.268 1.423.197 2.801 1.213 3.599.837.656 1.995 1.213 3.996 1.92 1.332.471 1.303 1.55 1.23 1.991-.151.896-.905 1.863-2.203 1.872-1.273.01-1.67-.054-2.648-.694a1.317 1.317 0 10-1.442 2.204c1.055.69 1.833.97 2.782 1.072v.602a1.317 1.317 0 002.634 0v-.728a4.718 4.718 0 001.952-1.084 4.942 4.942 0 001.522-2.807c.367-2.184-.818-4.158-2.949-4.912z" fill="#333"/><path d="M24.28 18.487c-1.192-.42-2.51-.93-3.248-1.51-.233-.181-.333-.598-.25-1.037.04-.219.233-.95.982-1.175 1.228-.37 2.07.12 2.375.348a1.317 1.317 0 001.578-2.11 5.254 5.254 0 00-1.962-.88v-.536a1.317 1.317 0 00-2.634 0v.622l-.117.033c-1.443.435-2.52 1.665-2.811 3.21-.268 1.423.197 2.801 1.213 3.599.837.656 1.995 1.213 3.996 1.92 1.332.471 1.303 1.55 1.23 1.991-.151.896-.905 1.863-2.203 1.872-1.273.01-1.67-.054-2.648-.694a1.317 1.317 0 10-1.442 2.204c1.055.69 1.833.97 2.782 1.072v.602a1.317 1.317 0 002.634 0v-.728a4.718 4.718 0 001.952-1.084 4.942 4.942 0 001.522-2.807c.367-2.184-.818-4.158-2.949-4.912z" fill="url(#paint2_linear)"/><defs><linearGradient id="paint0_linear" x1="0" y1="16.089" x2="14.771" y2="50.792" gradientUnits="userSpaceOnUse"><stop stop-color="#C5C5C5"/><stop offset="1" stop-color="#9A9A9A"/></linearGradient><linearGradient id="paint1_linear" x1="4.832" y1="0" x2="19.603" y2="34.703" gradientUnits="userSpaceOnUse"><stop stop-color="#C5C5C5"/><stop offset="1" stop-color="#9A9A9A"/></linearGradient><linearGradient id="paint2_linear" x1="17.743" y1="10.27" x2="33.108" y2="21.048" gradientUnits="userSpaceOnUse"><stop stop-color="#C5C5C5"/><stop offset="1" stop-color="#9A9A9A"/></linearGradient></defs></svg>