<svg width="46" height="40" fill="none" xmlns="http://www.w3.org/2000/svg"><path d="M45.088 22.509s0 0 0 0L36.743 1.5a.867.867 0 00-1.128-.486L1.768 14.53a.85.85 0 00-.347.276.86.86 0 00-.463.755v22.617c0 .48.389.87.868.87H38.26c.48 0 .868-.39.868-.87V25.826l5.475-2.187a.87.87 0 00.485-1.13zm-7.695 14.799h-34.7V16.43h34.7v20.877zm-21.96-22.612l14.525-5.804a6.893 6.893 0 004.973 2.15l1.449 3.654H15.432zm23.695 9.261v-8.396a.87.87 0 00-.868-.87h-.014l-1.838-4.629a.721.721 0 00-.07-.11.857.857 0 00-.907-.67 5.181 5.181 0 01-4.549-1.963.858.858 0 00-1.113-.195.975.975 0 00-.122.022l-17.733 7.081a.858.858 0 00-.476.464H6.052L35.453 2.954l7.703 19.393-4.028 1.611z" fill="url(#paint0_linear)" stroke="url(#paint1_linear)" stroke-width=".5"/><path d="M5.048 31.436a5.194 5.194 0 013.502 3.507c.11.368.448.62.831.62a.784.784 0 00.134-.02.68.68 0 00.119.025h20.82a.747.747 0 00.105-.022c.433.106.87-.16.976-.595v-.005a5.194 5.194 0 013.503-3.511.859.859 0 00.595-.957.876.876 0 00.025-.129V23.39a.791.791 0 00-.026-.129.858.858 0 00-.595-.956 5.189 5.189 0 01-3.5-3.513.857.857 0 00-.961-.597.822.822 0 00-.123-.024H9.633a.824.824 0 00-.129.026.857.857 0 00-.954.597 5.194 5.194 0 01-3.502 3.51.859.859 0 00-.595.957.88.88 0 00-.024.13v6.958c.005.04.013.081.024.12a.861.861 0 00.595.966zm1.116-7.693a6.894 6.894 0 003.822-3.832H30.1a6.896 6.896 0 003.823 3.832v6.253a6.901 6.901 0 00-3.822 3.832H9.986a6.901 6.901 0 00-3.822-3.832v-6.253z" fill="url(#paint2_linear)" stroke="url(#paint3_linear)" stroke-width=".5"/><path d="M20.043 32.089c2.875 0 5.205-2.337 5.205-5.22 0-2.882-2.33-5.219-5.205-5.219-2.874 0-5.205 2.337-5.205 5.22.003 2.88 2.332 5.216 5.205 5.219zm0-8.699a3.475 3.475 0 013.47 3.48 3.475 3.475 0 01-3.47 3.479 3.475 3.475 0 01-3.47-3.48 3.475 3.475 0 013.47-3.479z" fill="url(#paint4_linear)" stroke="url(#paint5_linear)" stroke-width=".5"/><path d="M10.5 28.174c.72 0 1.302-.584 1.302-1.305 0-.72-.582-1.304-1.301-1.304S9.2 26.149 9.2 26.869c0 .721.582 1.305 1.3 1.305zm0-1.74a.434.434 0 110 .87.434.434 0 010-.87z" fill="url(#paint6_linear)" stroke="url(#paint7_linear)" stroke-width=".5"/><path d="M29.585 28.174c.719 0 1.302-.584 1.302-1.305a1.302 1.302 0 10-2.602 0c0 .721.582 1.305 1.3 1.305zm0-1.74a.434.434 0 110 .87.434.434 0 010-.87z" fill="url(#paint8_linear)" stroke="url(#paint9_linear)" stroke-width=".5"/><defs><linearGradient id="paint0_linear" x1=".958" y1=".952" x2="30.116" y2="48.305" gradientUnits="userSpaceOnUse"><stop stop-color="#C5C5C5"/><stop offset="1" stop-color="#9A9A9A"/></linearGradient><linearGradient id="paint1_linear" x1=".958" y1=".952" x2="30.116" y2="48.305" gradientUnits="userSpaceOnUse"><stop stop-color="#C5C5C5"/><stop offset="1" stop-color="#9A9A9A"/></linearGradient><linearGradient id="paint2_linear" x1="4.429" y1="18.171" x2="14.675" y2="43.92" gradientUnits="userSpaceOnUse"><stop stop-color="#C5C5C5"/><stop offset="1" stop-color="#9A9A9A"/></linearGradient><linearGradient id="paint3_linear" x1="4.429" y1="18.171" x2="14.675" y2="43.92" gradientUnits="userSpaceOnUse"><stop stop-color="#C5C5C5"/><stop offset="1" stop-color="#9A9A9A"/></linearGradient><linearGradient id="paint4_linear" x1="14.838" y1="21.65" x2="23.309" y2="33.477" gradientUnits="userSpaceOnUse"><stop stop-color="#C5C5C5"/><stop offset="1" stop-color="#9A9A9A"/></linearGradient><linearGradient id="paint5_linear" x1="14.838" y1="21.65" x2="23.309" y2="33.477" gradientUnits="userSpaceOnUse"><stop stop-color="#C5C5C5"/><stop offset="1" stop-color="#9A9A9A"/></linearGradient><linearGradient id="paint6_linear" x1="9.2" y1="25.565" x2="11.318" y2="28.521" gradientUnits="userSpaceOnUse"><stop stop-color="#C5C5C5"/><stop offset="1" stop-color="#9A9A9A"/></linearGradient><linearGradient id="paint7_linear" x1="9.2" y1="25.565" x2="11.318" y2="28.521" gradientUnits="userSpaceOnUse"><stop stop-color="#C5C5C5"/><stop offset="1" stop-color="#9A9A9A"/></linearGradient><linearGradient id="paint8_linear" x1="28.284" y1="25.565" x2="30.402" y2="28.521" gradientUnits="userSpaceOnUse"><stop stop-color="#C5C5C5"/><stop offset="1" stop-color="#9A9A9A"/></linearGradient><linearGradient id="paint9_linear" x1="28.284" y1="25.565" x2="30.402" y2="28.521" gradientUnits="userSpaceOnUse"><stop stop-color="#C5C5C5"/><stop offset="1" stop-color="#9A9A9A"/></linearGradient></defs></svg>